# xmcd
#
# Track frame offsets: 
#        150
#        15422
#        34371
#        53109
#        71066
#        101468
#        124217
#        144246
#        160662
#        200576
#        216915
#        226506
#        250553
#
# Disc length: 3501 seconds
#
# Revision: 0
# Processed by: cddbd v1.5.2PL0 Copyright (c) Steve Scherf et al.
# Submitted via: ExactAudioCopy v0.95a4
#
DISCID=a90dab0d
DTITLE=West Water Outlaws - West Water Outlaws
DYEAR=2013
DGENRE=Rock
TTITLE0=Caught In The Headlights
TTITLE1=Feeling Come Back
TTITLE2=57
TTITLE3=Rising Sun
TTITLE4=Goodbye Song
TTITLE5=Something Wrong
TTITLE6=Hard To Love You When I Don't Love Me
TTITLE7=Bless Your Soul
TTITLE8=Things I Meant To Say
TTITLE9=665 (The Neighbor Of The Beast)
TTITLE10=Coronado's Castle
TTITLE11=Gimme
TTITLE12=I'm Not Bad
EXTD=
EXTT0=
EXTT1=
EXTT2=
EXTT3=
EXTT4=
EXTT5=
EXTT6=
EXTT7=
EXTT8=
EXTT9=
EXTT10=
EXTT11=
EXTT12=
PLAYORDER=
